<?xml version="1.0" encoding="UTF-8" standalone="no"?>
<!DOCTYPE svg PUBLIC "-//W3C//DTD SVG 1.1//EN"
 "http://www.w3.org/Graphics/SVG/1.1/DTD/svg11.dtd">
<!-- Generated by graphviz version 2.28.0 (20120228.1928)
 -->
<!-- Title: CFG for &#39;branch&#39; function Pages: 1 -->
<svg width="1155pt" height="837pt"
 viewBox="0.00 0.00 1154.73 837.00" xmlns="http://www.w3.org/2000/svg" xmlns:xlink="http://www.w3.org/1999/xlink">
<g id="graph1" class="graph" transform="scale(1 1) rotate(0) translate(4 833)">
<title>CFG for &#39;branch&#39; function</title>
<polygon fill="white" stroke="white" points="-4,5 -4,-833 1151.73,-833 1151.73,5 -4,5"/>
<text text-anchor="middle" x="573.365" y="-7.8" font-family="Times,serif" font-size="14.00">CFG for &#39;branch&#39; function</text>
<!-- Node0x1391b50 -->
<g id="node1" class="node"><title>Node0x1391b50</title>
<polygon fill="none" stroke="black" points="392.5,-707.5 392.5,-828.5 581.5,-828.5 581.5,-707.5 392.5,-707.5"/>
<text text-anchor="start" x="400.5" y="-813.3" font-family="Times,serif" font-size="14.00">%0:</text>
<text text-anchor="start" x="400.5" y="-798.3" font-family="Times,serif" font-size="14.00"> %1 = alloca i32, align 4</text>
<text text-anchor="start" x="400.5" y="-783.3" font-family="Times,serif" font-size="14.00"> store i32 %n, i32* %1, align 4</text>
<text text-anchor="start" x="400.5" y="-768.3" font-family="Times,serif" font-size="14.00"> %2 = load i32* %1, align 4</text>
<text text-anchor="start" x="400.5" y="-753.3" font-family="Times,serif" font-size="14.00"> %3 = icmp sgt i32 %2, 0</text>
<text text-anchor="start" x="400.5" y="-738.3" font-family="Times,serif" font-size="14.00"> br i1 %3, label %4, label %6</text>
<polyline fill="none" stroke="black" points="392.5,-730.5 581.5,-730.5 "/>
<text text-anchor="middle" x="440" y="-715.3" font-family="Times,serif" font-size="14.00">T</text>
<polyline fill="none" stroke="black" points="487.5,-707.5 487.5,-730.5 "/>
<text text-anchor="middle" x="534.5" y="-715.3" font-family="Times,serif" font-size="14.00">F</text>
</g>
<!-- Node0x1391af0 -->
<g id="node3" class="node"><title>Node0x1391af0</title>
<polygon fill="none" stroke="black" points="-0.5,-313.5 -0.5,-382.5 526.5,-382.5 526.5,-313.5 -0.5,-313.5"/>
<text text-anchor="start" x="7.5" y="-367.3" font-family="Times,serif" font-size="14.00">%4:</text>
<text text-anchor="start" x="7.5" y="-336.3" font-family="Times,serif" font-size="14.00"> %5 = call i32 (i8*, ...)* @printf(i8* getelementptr inbounds ([10 x i8]* @.str, i32 0, i32 0))</text>
<text text-anchor="start" x="7.5" y="-321.3" font-family="Times,serif" font-size="14.00"> br label %18</text>
</g>
<!-- Node0x1391b50&#45;&gt;Node0x1391af0 -->
<g id="edge2" class="edge"><title>Node0x1391b50:s0&#45;&gt;Node0x1391af0</title>
<path fill="none" stroke="black" d="M391,-719C254.426,-719 253.388,-491.068 259.261,-393.001"/>
<polygon fill="black" stroke="black" points="262.767,-393.022 259.924,-382.816 255.782,-392.567 262.767,-393.022"/>
</g>
<!-- Node0x1391ce0 -->
<g id="node5" class="node"><title>Node0x1391ce0</title>
<polygon fill="none" stroke="black" points="509,-563.5 509,-670.5 697,-670.5 697,-563.5 509,-563.5"/>
<text text-anchor="start" x="517" y="-655.3" font-family="Times,serif" font-size="14.00">%6:</text>
<text text-anchor="start" x="517" y="-624.3" font-family="Times,serif" font-size="14.00"> %7 = load i32* %1, align 4</text>
<text text-anchor="start" x="517" y="-609.3" font-family="Times,serif" font-size="14.00"> %8 = icmp eq i32 %7, 0</text>
<text text-anchor="start" x="517" y="-594.3" font-family="Times,serif" font-size="14.00"> br i1 %8, label %9, label %11</text>
<polyline fill="none" stroke="black" points="509,-586.5 697,-586.5 "/>
<text text-anchor="middle" x="556" y="-571.3" font-family="Times,serif" font-size="14.00">T</text>
<polyline fill="none" stroke="black" points="603,-563.5 603,-586.5 "/>
<text text-anchor="middle" x="650" y="-571.3" font-family="Times,serif" font-size="14.00">F</text>
</g>
<!-- Node0x1391b50&#45;&gt;Node0x1391ce0 -->
<g id="edge4" class="edge"><title>Node0x1391b50:s1&#45;&gt;Node0x1391ce0</title>
<path fill="none" stroke="black" d="M583,-719C602.125,-719 608.757,-701.358 609.999,-680.821"/>
<polygon fill="black" stroke="black" points="613.503,-680.64 610.206,-670.571 606.504,-680.498 613.503,-680.64"/>
</g>
<!-- Node0x1391d40 -->
<g id="node7" class="node"><title>Node0x1391d40</title>
<polygon fill="none" stroke="black" points="376,-24 376,-78 442,-78 442,-24 376,-24"/>
<text text-anchor="start" x="384" y="-62.8" font-family="Times,serif" font-size="14.00">%18:</text>
<text text-anchor="start" x="384" y="-31.8" font-family="Times,serif" font-size="14.00"> ret i32 0</text>
</g>
<!-- Node0x1391af0&#45;&gt;Node0x1391d40 -->
<g id="edge6" class="edge"><title>Node0x1391af0&#45;&gt;Node0x1391d40</title>
<path fill="none" stroke="black" d="M262.163,-313.377C262.616,-284.123 266.184,-241.175 281,-207 301.795,-159.033 342.084,-114.128 371.931,-85.1259"/>
<polygon fill="black" stroke="black" points="374.467,-87.5437 379.276,-78.1031 369.629,-82.4842 374.467,-87.5437"/>
</g>
<!-- Node0x1391da0 -->
<g id="node9" class="node"><title>Node0x1391da0</title>
<polygon fill="none" stroke="black" points="290.5,-207.5 290.5,-276.5 823.5,-276.5 823.5,-207.5 290.5,-207.5"/>
<text text-anchor="start" x="298.5" y="-261.3" font-family="Times,serif" font-size="14.00">%9:</text>
<text text-anchor="start" x="298.5" y="-230.3" font-family="Times,serif" font-size="14.00"> %10 = call i32 (i8*, ...)* @printf(i8* getelementptr inbounds ([6 x i8]* @.str1, i32 0, i32 0))</text>
<text text-anchor="start" x="298.5" y="-215.3" font-family="Times,serif" font-size="14.00"> br label %17</text>
</g>
<!-- Node0x1391ce0&#45;&gt;Node0x1391da0 -->
<g id="edge8" class="edge"><title>Node0x1391ce0:s0&#45;&gt;Node0x1391da0</title>
<path fill="none" stroke="black" d="M556,-563C556,-464.267 556.482,-348.399 556.777,-286.77"/>
<polygon fill="black" stroke="black" points="560.277,-286.649 556.826,-276.632 553.277,-286.615 560.277,-286.649"/>
</g>
<!-- Node0x1392eb0 -->
<g id="node11" class="node"><title>Node0x1392eb0</title>
<polygon fill="none" stroke="black" points="803.5,-419.5 803.5,-526.5 1004.5,-526.5 1004.5,-419.5 803.5,-419.5"/>
<text text-anchor="start" x="811.5" y="-511.3" font-family="Times,serif" font-size="14.00">%11:</text>
<text text-anchor="start" x="811.5" y="-480.3" font-family="Times,serif" font-size="14.00"> %12 = load i32* %1, align 4</text>
<text text-anchor="start" x="811.5" y="-465.3" font-family="Times,serif" font-size="14.00"> %13 = icmp slt i32 %12, 0</text>
<text text-anchor="start" x="811.5" y="-450.3" font-family="Times,serif" font-size="14.00"> br i1 %13, label %14, label %16</text>
<polyline fill="none" stroke="black" points="803.5,-442.5 1004.5,-442.5 "/>
<text text-anchor="middle" x="854" y="-427.3" font-family="Times,serif" font-size="14.00">T</text>
<polyline fill="none" stroke="black" points="904.5,-419.5 904.5,-442.5 "/>
<text text-anchor="middle" x="954.5" y="-427.3" font-family="Times,serif" font-size="14.00">F</text>
</g>
<!-- Node0x1391ce0&#45;&gt;Node0x1392eb0 -->
<g id="edge10" class="edge"><title>Node0x1391ce0:s1&#45;&gt;Node0x1392eb0</title>
<path fill="none" stroke="black" d="M698,-575C743.909,-575 790.237,-554.526 827.3,-532.015"/>
<polygon fill="black" stroke="black" points="829.397,-534.832 836.031,-526.571 825.693,-528.892 829.397,-534.832"/>
</g>
<!-- Node0x1393250 -->
<g id="node13" class="node"><title>Node0x1393250</title>
<polygon fill="none" stroke="black" points="511.5,-116 511.5,-170 602.5,-170 602.5,-116 511.5,-116"/>
<text text-anchor="start" x="519.5" y="-154.8" font-family="Times,serif" font-size="14.00">%17:</text>
<text text-anchor="start" x="519.5" y="-123.8" font-family="Times,serif" font-size="14.00"> br label %18</text>
</g>
<!-- Node0x1391da0&#45;&gt;Node0x1393250 -->
<g id="edge12" class="edge"><title>Node0x1391da0&#45;&gt;Node0x1393250</title>
<path fill="none" stroke="black" d="M557,-207.346C557,-198.615 557,-189.174 557,-180.313"/>
<polygon fill="black" stroke="black" points="560.5,-180.255 557,-170.255 553.5,-180.255 560.5,-180.255"/>
</g>
<!-- Node0x1393440 -->
<g id="node15" class="node"><title>Node0x1393440</title>
<polygon fill="none" stroke="black" points="584,-313.5 584,-382.5 1124,-382.5 1124,-313.5 584,-313.5"/>
<text text-anchor="start" x="592" y="-367.3" font-family="Times,serif" font-size="14.00">%14:</text>
<text text-anchor="start" x="592" y="-336.3" font-family="Times,serif" font-size="14.00"> %15 = call i32 (i8*, ...)* @printf(i8* getelementptr inbounds ([10 x i8]* @.str2, i32 0, i32 0))</text>
<text text-anchor="start" x="592" y="-321.3" font-family="Times,serif" font-size="14.00"> br label %16</text>
</g>
<!-- Node0x1392eb0&#45;&gt;Node0x1393440 -->
<g id="edge14" class="edge"><title>Node0x1392eb0:s0&#45;&gt;Node0x1393440</title>
<path fill="none" stroke="black" d="M854,-419C854,-410.619 854,-401.674 854,-393.077"/>
<polygon fill="black" stroke="black" points="857.5,-392.824 854,-382.824 850.5,-392.824 857.5,-392.824"/>
</g>
<!-- Node0x13934a0 -->
<g id="node17" class="node"><title>Node0x13934a0</title>
<polygon fill="none" stroke="black" points="841.5,-215 841.5,-269 932.5,-269 932.5,-215 841.5,-215"/>
<text text-anchor="start" x="849.5" y="-253.8" font-family="Times,serif" font-size="14.00">%16:</text>
<text text-anchor="start" x="849.5" y="-222.8" font-family="Times,serif" font-size="14.00"> br label %17</text>
</g>
<!-- Node0x1392eb0&#45;&gt;Node0x13934a0 -->
<g id="edge16" class="edge"><title>Node0x1392eb0:s1&#45;&gt;Node0x13934a0</title>
<path fill="none" stroke="black" d="M1006,-431C1036.17,-431 1115.85,-407.82 1133,-383 1150.69,-357.406 1151.75,-337.827 1133,-313 1110.11,-282.686 1007.93,-261.624 942.674,-250.988"/>
<polygon fill="black" stroke="black" points="942.962,-247.49 932.535,-249.371 941.859,-254.403 942.962,-247.49"/>
</g>
<!-- Node0x1393250&#45;&gt;Node0x1391d40 -->
<g id="edge22" class="edge"><title>Node0x1393250&#45;&gt;Node0x1391d40</title>
<path fill="none" stroke="black" d="M514.192,-115.968C494.351,-103.903 470.849,-89.6108 451.097,-77.5994"/>
<polygon fill="black" stroke="black" points="452.675,-74.4627 442.312,-72.2573 449.038,-80.4437 452.675,-74.4627"/>
</g>
<!-- Node0x1393440&#45;&gt;Node0x13934a0 -->
<g id="edge18" class="edge"><title>Node0x1393440&#45;&gt;Node0x13934a0</title>
<path fill="none" stroke="black" d="M864.714,-313.234C868.201,-302.245 872.083,-290.012 875.617,-278.874"/>
<polygon fill="black" stroke="black" points="879.055,-279.611 878.744,-269.02 872.383,-277.493 879.055,-279.611"/>
</g>
<!-- Node0x13934a0&#45;&gt;Node0x1393250 -->
<g id="edge20" class="edge"><title>Node0x13934a0&#45;&gt;Node0x1393250</title>
<path fill="none" stroke="black" d="M848.174,-214.861C842.876,-211.935 837.4,-209.216 832,-207 759.269,-177.151 669.634,-159.966 612.884,-151.298"/>
<polygon fill="black" stroke="black" points="613.089,-147.79 602.682,-149.778 612.057,-154.714 613.089,-147.79"/>
</g>
</g>
</svg>
