<?xml version="1.0" encoding="UTF-8" standalone="no"?>
<!DOCTYPE svg PUBLIC "-//W3C//DTD SVG 1.1//EN"
 "http://www.w3.org/Graphics/SVG/1.1/DTD/svg11.dtd">
<!-- Generated by graphviz version 2.28.0 (20120228.1928)
 -->
<!-- Title: Call Graph Pages: 1 -->
<svg width="142pt" height="363pt"
 viewBox="0.00 0.00 142.00 363.00" xmlns="http://www.w3.org/2000/svg" xmlns:xlink="http://www.w3.org/1999/xlink">
<g id="graph1" class="graph" transform="scale(1 1) rotate(0) translate(4 359)">
<title>Call Graph</title>
<polygon fill="white" stroke="white" points="-4,5 -4,-359 139,-359 139,5 -4,5"/>
<text text-anchor="middle" x="67" y="-7.8" font-family="Times,serif" font-size="14.00">Call Graph</text>
<!-- Node0x21f2a10 -->
<g id="node1" class="node"><title>Node0x21f2a10</title>
<polygon fill="none" stroke="black" points="22,-318 22,-354 112,-354 112,-318 22,-318"/>
<text text-anchor="middle" x="67" y="-332.3" font-family="Times,serif" font-size="14.00">external node</text>
</g>
<!-- Node0x21eca00 -->
<g id="node3" class="node"><title>Node0x21eca00</title>
<polygon fill="none" stroke="black" points="40,-170 40,-206 94,-206 94,-170 40,-170"/>
<text text-anchor="middle" x="67" y="-184.3" font-family="Times,serif" font-size="14.00">branch</text>
</g>
<!-- Node0x21f2a10&#45;&gt;Node0x21eca00 -->
<g id="edge2" class="edge"><title>Node0x21f2a10&#45;&gt;Node0x21eca00</title>
<path fill="none" stroke="black" d="M51.7609,-317.879C43.8993,-307.881 35.114,-294.588 31,-281 26.1059,-264.836 26.1059,-259.164 31,-243 34.0855,-232.809 39.7986,-222.784 45.7789,-214.19"/>
<polygon fill="black" stroke="black" points="48.6172,-216.239 51.7609,-206.121 42.9938,-212.07 48.6172,-216.239"/>
</g>
<!-- Node0x21ec990 -->
<g id="node5" class="node"><title>Node0x21ec990</title>
<polygon fill="none" stroke="black" points="40,-96 40,-132 94,-132 94,-96 40,-96"/>
<text text-anchor="middle" x="67" y="-110.3" font-family="Times,serif" font-size="14.00">printf</text>
</g>
<!-- Node0x21f2a10&#45;&gt;Node0x21ec990 -->
<g id="edge4" class="edge"><title>Node0x21f2a10&#45;&gt;Node0x21ec990</title>
<path fill="none" stroke="black" d="M82.2391,-317.879C90.1007,-307.881 98.886,-294.588 103,-281 117.425,-233.358 117.425,-216.642 103,-169 99.9145,-158.809 94.2014,-148.784 88.2211,-140.19"/>
<polygon fill="black" stroke="black" points="91.0062,-138.07 82.2391,-132.121 85.3828,-142.239 91.0062,-138.07"/>
</g>
<!-- Node0x21f4f00 -->
<g id="node7" class="node"><title>Node0x21f4f00</title>
<polygon fill="none" stroke="black" points="40,-244 40,-280 94,-280 94,-244 40,-244"/>
<text text-anchor="middle" x="67" y="-258.3" font-family="Times,serif" font-size="14.00">main</text>
</g>
<!-- Node0x21f2a10&#45;&gt;Node0x21f4f00 -->
<g id="edge6" class="edge"><title>Node0x21f2a10&#45;&gt;Node0x21f4f00</title>
<path fill="none" stroke="black" d="M67,-317.937C67,-309.807 67,-299.876 67,-290.705"/>
<polygon fill="black" stroke="black" points="70.5001,-290.441 67,-280.441 63.5001,-290.441 70.5001,-290.441"/>
</g>
<!-- Node0x21eca00&#45;&gt;Node0x21ec990 -->
<g id="edge8" class="edge"><title>Node0x21eca00&#45;&gt;Node0x21ec990</title>
<path fill="none" stroke="black" d="M55.3202,-169.937C53.5762,-161.719 53.0855,-151.66 53.8479,-142.406"/>
<polygon fill="black" stroke="black" points="57.3227,-142.829 55.2412,-132.441 50.3901,-141.86 57.3227,-142.829"/>
</g>
<!-- Node0x21eca00&#45;&gt;Node0x21ec990 -->
<g id="edge10" class="edge"><title>Node0x21eca00&#45;&gt;Node0x21ec990</title>
<path fill="none" stroke="black" d="M67,-169.937C67,-161.807 67,-151.876 67,-142.705"/>
<polygon fill="black" stroke="black" points="70.5001,-142.441 67,-132.441 63.5001,-142.441 70.5001,-142.441"/>
</g>
<!-- Node0x21eca00&#45;&gt;Node0x21ec990 -->
<g id="edge12" class="edge"><title>Node0x21eca00&#45;&gt;Node0x21ec990</title>
<path fill="none" stroke="black" d="M78.6798,-169.937C80.4238,-161.719 80.9145,-151.66 80.1521,-142.406"/>
<polygon fill="black" stroke="black" points="83.6099,-141.86 78.7588,-132.441 76.6773,-142.829 83.6099,-141.86"/>
</g>
<!-- Node0x21f2550 -->
<g id="node12" class="node"><title>Node0x21f2550</title>
<ellipse fill="none" stroke="black" cx="67" cy="-41" rx="67.3907" ry="18"/>
<text text-anchor="middle" x="67" y="-37.3" font-family="Times,serif" font-size="14.00">Node0x21f2550</text>
</g>
<!-- Node0x21ec990&#45;&gt;Node0x21f2550 -->
<g id="edge14" class="edge"><title>Node0x21ec990&#45;&gt;Node0x21f2550</title>
<path fill="none" stroke="black" d="M67,-95.8129C67,-87.7895 67,-78.0475 67,-69.0691"/>
<polygon fill="black" stroke="black" points="70.5001,-69.0288 67,-59.0288 63.5001,-69.0289 70.5001,-69.0288"/>
</g>
<!-- Node0x21f4f00&#45;&gt;Node0x21eca00 -->
<g id="edge16" class="edge"><title>Node0x21f4f00&#45;&gt;Node0x21eca00</title>
<path fill="none" stroke="black" d="M55.3202,-243.937C53.5762,-235.719 53.0855,-225.66 53.8479,-216.406"/>
<polygon fill="black" stroke="black" points="57.3227,-216.829 55.2412,-206.441 50.3901,-215.86 57.3227,-216.829"/>
</g>
<!-- Node0x21f4f00&#45;&gt;Node0x21eca00 -->
<g id="edge18" class="edge"><title>Node0x21f4f00&#45;&gt;Node0x21eca00</title>
<path fill="none" stroke="black" d="M67,-243.937C67,-235.807 67,-225.876 67,-216.705"/>
<polygon fill="black" stroke="black" points="70.5001,-216.441 67,-206.441 63.5001,-216.441 70.5001,-216.441"/>
</g>
<!-- Node0x21f4f00&#45;&gt;Node0x21eca00 -->
<g id="edge20" class="edge"><title>Node0x21f4f00&#45;&gt;Node0x21eca00</title>
<path fill="none" stroke="black" d="M78.6798,-243.937C80.4238,-235.719 80.9145,-225.66 80.1521,-216.406"/>
<polygon fill="black" stroke="black" points="83.6099,-215.86 78.7588,-206.441 76.6773,-216.829 83.6099,-215.86"/>
</g>
</g>
</svg>
