<?xml version="1.0" encoding="UTF-8" standalone="no"?>
<!DOCTYPE svg PUBLIC "-//W3C//DTD SVG 1.1//EN"
 "http://www.w3.org/Graphics/SVG/1.1/DTD/svg11.dtd">
<!-- Generated by graphviz version 2.28.0 (20120228.1928)
 -->
<!-- Title: Post dominator tree for &#39;branch&#39; function Pages: 1 -->
<svg width="1427pt" height="467pt"
 viewBox="0.00 0.00 1427.00 467.00" xmlns="http://www.w3.org/2000/svg" xmlns:xlink="http://www.w3.org/1999/xlink">
<g id="graph1" class="graph" transform="scale(1 1) rotate(0) translate(4 463)">
<title>Post dominator tree for &#39;branch&#39; function</title>
<polygon fill="white" stroke="white" points="-4,5 -4,-463 1424,-463 1424,5 -4,5"/>
<text text-anchor="middle" x="709.5" y="-7.8" font-family="Times,serif" font-size="14.00">Post dominator tree for &#39;branch&#39; function</text>
<!-- Node0x27cfa20 -->
<g id="node1" class="node"><title>Node0x27cfa20</title>
<polygon fill="none" stroke="black" points="747,-404 747,-458 813,-458 813,-404 747,-404"/>
<text text-anchor="start" x="755" y="-442.8" font-family="Times,serif" font-size="14.00">%18:</text>
<text text-anchor="start" x="755" y="-411.8" font-family="Times,serif" font-size="14.00"> ret i32 0</text>
</g>
<!-- Node0x27cf980 -->
<g id="node3" class="node"><title>Node0x27cf980</title>
<polygon fill="none" stroke="black" points="576.5,-290 576.5,-344 667.5,-344 667.5,-290 576.5,-290"/>
<text text-anchor="start" x="584.5" y="-328.8" font-family="Times,serif" font-size="14.00">%17:</text>
<text text-anchor="start" x="584.5" y="-297.8" font-family="Times,serif" font-size="14.00"> br label %18</text>
</g>
<!-- Node0x27cfa20&#45;&gt;Node0x27cf980 -->
<g id="edge2" class="edge"><title>Node0x27cfa20&#45;&gt;Node0x27cf980</title>
<path fill="none" stroke="black" d="M746.553,-411.581C725.911,-399.722 699.221,-383.488 677,-367 670.429,-362.124 663.706,-356.625 657.319,-351.118"/>
<polygon fill="black" stroke="black" points="659.263,-348.166 649.444,-344.185 654.637,-353.42 659.263,-348.166"/>
</g>
<!-- Node0x27d8ca0 -->
<g id="node5" class="node"><title>Node0x27d8ca0</title>
<polygon fill="none" stroke="black" points="685.5,-268 685.5,-366 874.5,-366 874.5,-268 685.5,-268"/>
<text text-anchor="start" x="693.5" y="-350.8" font-family="Times,serif" font-size="14.00">%0:</text>
<text text-anchor="start" x="693.5" y="-335.8" font-family="Times,serif" font-size="14.00"> %1 = alloca i32, align 4</text>
<text text-anchor="start" x="693.5" y="-320.8" font-family="Times,serif" font-size="14.00"> store i32 %n, i32* %1, align 4</text>
<text text-anchor="start" x="693.5" y="-305.8" font-family="Times,serif" font-size="14.00"> %2 = load i32* %1, align 4</text>
<text text-anchor="start" x="693.5" y="-290.8" font-family="Times,serif" font-size="14.00"> %3 = icmp sgt i32 %2, 0</text>
<text text-anchor="start" x="693.5" y="-275.8" font-family="Times,serif" font-size="14.00"> br i1 %3, label %4, label %6</text>
</g>
<!-- Node0x27cfa20&#45;&gt;Node0x27d8ca0 -->
<g id="edge4" class="edge"><title>Node0x27cfa20&#45;&gt;Node0x27d8ca0</title>
<path fill="none" stroke="black" d="M780,-403.741C780,-395.391 780,-385.799 780,-376.122"/>
<polygon fill="black" stroke="black" points="783.5,-376.055 780,-366.055 776.5,-376.055 783.5,-376.055"/>
</g>
<!-- Node0x27d8d50 -->
<g id="node7" class="node"><title>Node0x27d8d50</title>
<polygon fill="none" stroke="black" points="892.5,-282.5 892.5,-351.5 1419.5,-351.5 1419.5,-282.5 892.5,-282.5"/>
<text text-anchor="start" x="900.5" y="-336.3" font-family="Times,serif" font-size="14.00">%4:</text>
<text text-anchor="start" x="900.5" y="-305.3" font-family="Times,serif" font-size="14.00"> %5 = call i32 (i8*, ...)* @printf(i8* getelementptr inbounds ([10 x i8]* @.str, i32 0, i32 0))</text>
<text text-anchor="start" x="900.5" y="-290.3" font-family="Times,serif" font-size="14.00"> br label %18</text>
</g>
<!-- Node0x27cfa20&#45;&gt;Node0x27d8d50 -->
<g id="edge6" class="edge"><title>Node0x27cfa20&#45;&gt;Node0x27d8d50</title>
<path fill="none" stroke="black" d="M813.038,-420.159C861.93,-405.595 956.1,-377.545 1033.41,-354.516"/>
<polygon fill="black" stroke="black" points="1034.65,-357.799 1043.23,-351.59 1032.65,-351.09 1034.65,-357.799"/>
</g>
<!-- Node0x27d5ac0 -->
<g id="node9" class="node"><title>Node0x27d5ac0</title>
<polygon fill="none" stroke="black" points="418.5,-161 418.5,-215 509.5,-215 509.5,-161 418.5,-161"/>
<text text-anchor="start" x="426.5" y="-199.8" font-family="Times,serif" font-size="14.00">%16:</text>
<text text-anchor="start" x="426.5" y="-168.8" font-family="Times,serif" font-size="14.00"> br label %17</text>
</g>
<!-- Node0x27cf980&#45;&gt;Node0x27d5ac0 -->
<g id="edge8" class="edge"><title>Node0x27cf980&#45;&gt;Node0x27d5ac0</title>
<path fill="none" stroke="black" d="M589.645,-289.993C565.018,-270.198 530.968,-242.828 504.526,-221.574"/>
<polygon fill="black" stroke="black" points="506.57,-218.727 496.583,-215.19 502.184,-224.183 506.57,-218.727"/>
</g>
<!-- Node0x27d8c60 -->
<g id="node11" class="node"><title>Node0x27d8c60</title>
<polygon fill="none" stroke="black" points="528,-146 528,-230 716,-230 716,-146 528,-146"/>
<text text-anchor="start" x="536" y="-214.8" font-family="Times,serif" font-size="14.00">%6:</text>
<text text-anchor="start" x="536" y="-183.8" font-family="Times,serif" font-size="14.00"> %7 = load i32* %1, align 4</text>
<text text-anchor="start" x="536" y="-168.8" font-family="Times,serif" font-size="14.00"> %8 = icmp eq i32 %7, 0</text>
<text text-anchor="start" x="536" y="-153.8" font-family="Times,serif" font-size="14.00"> br i1 %8, label %9, label %11</text>
</g>
<!-- Node0x27cf980&#45;&gt;Node0x27d8c60 -->
<g id="edge10" class="edge"><title>Node0x27cf980&#45;&gt;Node0x27d8c60</title>
<path fill="none" stroke="black" d="M622,-289.993C622,-275.81 622,-257.74 622,-240.816"/>
<polygon fill="black" stroke="black" points="625.5,-240.472 622,-230.472 618.5,-240.472 625.5,-240.472"/>
</g>
<!-- Node0x27d8ce0 -->
<g id="node13" class="node"><title>Node0x27d8ce0</title>
<polygon fill="none" stroke="black" points="734.5,-153.5 734.5,-222.5 1267.5,-222.5 1267.5,-153.5 734.5,-153.5"/>
<text text-anchor="start" x="742.5" y="-207.3" font-family="Times,serif" font-size="14.00">%9:</text>
<text text-anchor="start" x="742.5" y="-176.3" font-family="Times,serif" font-size="14.00"> %10 = call i32 (i8*, ...)* @printf(i8* getelementptr inbounds ([6 x i8]* @.str1, i32 0, i32 0))</text>
<text text-anchor="start" x="742.5" y="-161.3" font-family="Times,serif" font-size="14.00"> br label %17</text>
</g>
<!-- Node0x27cf980&#45;&gt;Node0x27d8ce0 -->
<g id="edge12" class="edge"><title>Node0x27cf980&#45;&gt;Node0x27d8ce0</title>
<path fill="none" stroke="black" d="M646.028,-289.938C655.015,-281.527 665.782,-272.869 677,-267 710.295,-249.581 747.549,-235.981 784.612,-225.382"/>
<polygon fill="black" stroke="black" points="785.848,-228.67 794.54,-222.611 783.967,-221.928 785.848,-228.67"/>
</g>
<!-- Node0x27d3fa0 -->
<g id="node15" class="node"><title>Node0x27d3fa0</title>
<polygon fill="none" stroke="black" points="0,-31.5 0,-100.5 540,-100.5 540,-31.5 0,-31.5"/>
<text text-anchor="start" x="8" y="-85.3" font-family="Times,serif" font-size="14.00">%14:</text>
<text text-anchor="start" x="8" y="-54.3" font-family="Times,serif" font-size="14.00"> %15 = call i32 (i8*, ...)* @printf(i8* getelementptr inbounds ([10 x i8]* @.str2, i32 0, i32 0))</text>
<text text-anchor="start" x="8" y="-39.3" font-family="Times,serif" font-size="14.00"> br label %16</text>
</g>
<!-- Node0x27d5ac0&#45;&gt;Node0x27d3fa0 -->
<g id="edge14" class="edge"><title>Node0x27d5ac0&#45;&gt;Node0x27d3fa0</title>
<path fill="none" stroke="black" d="M421.905,-160.962C395.95,-144.907 362.175,-124.015 333.065,-106.01"/>
<polygon fill="black" stroke="black" points="334.541,-102.807 324.195,-100.523 330.858,-108.76 334.541,-102.807"/>
</g>
<!-- Node0x27d3f30 -->
<g id="node17" class="node"><title>Node0x27d3f30</title>
<polygon fill="none" stroke="black" points="558.5,-24 558.5,-108 759.5,-108 759.5,-24 558.5,-24"/>
<text text-anchor="start" x="566.5" y="-92.8" font-family="Times,serif" font-size="14.00">%11:</text>
<text text-anchor="start" x="566.5" y="-61.8" font-family="Times,serif" font-size="14.00"> %12 = load i32* %1, align 4</text>
<text text-anchor="start" x="566.5" y="-46.8" font-family="Times,serif" font-size="14.00"> %13 = icmp slt i32 %12, 0</text>
<text text-anchor="start" x="566.5" y="-31.8" font-family="Times,serif" font-size="14.00"> br i1 %13, label %14, label %16</text>
</g>
<!-- Node0x27d5ac0&#45;&gt;Node0x27d3f30 -->
<g id="edge16" class="edge"><title>Node0x27d5ac0&#45;&gt;Node0x27d3f30</title>
<path fill="none" stroke="black" d="M496.596,-160.89C503.832,-155.44 511.565,-149.874 519,-145 535.546,-134.154 553.701,-123.315 571.295,-113.317"/>
<polygon fill="black" stroke="black" points="573.438,-116.127 580.433,-108.17 570.002,-110.028 573.438,-116.127"/>
</g>
</g>
</svg>
