<?xml version="1.0" encoding="UTF-8" standalone="no"?>
<!DOCTYPE svg PUBLIC "-//W3C//DTD SVG 1.1//EN"
 "http://www.w3.org/Graphics/SVG/1.1/DTD/svg11.dtd">
<!-- Generated by graphviz version 2.28.0 (20120228.1928)
 -->
<!-- Title: CFG for &#39;branch&#39; function Pages: 1 -->
<svg width="189pt" height="543pt"
 viewBox="0.00 0.00 189.00 543.00" xmlns="http://www.w3.org/2000/svg" xmlns:xlink="http://www.w3.org/1999/xlink">
<g id="graph1" class="graph" transform="scale(1 1) rotate(0) translate(4 539)">
<title>CFG for &#39;branch&#39; function</title>
<polygon fill="white" stroke="white" points="-4,5 -4,-539 186,-539 186,5 -4,5"/>
<text text-anchor="middle" x="90.5" y="-7.8" font-family="Times,serif" font-size="14.00">CFG for &#39;branch&#39; function</text>
<!-- Node0xdacb50 -->
<g id="node1" class="node"><title>Node0xdacb50</title>
<polygon fill="none" stroke="black" points="38,-488 38,-534 92,-534 92,-488 38,-488"/>
<text text-anchor="middle" x="65" y="-518.8" font-family="Times,serif" font-size="14.00">%0</text>
<polyline fill="none" stroke="black" points="38,-511 92,-511 "/>
<text text-anchor="middle" x="51.5" y="-495.8" font-family="Times,serif" font-size="14.00">T</text>
<polyline fill="none" stroke="black" points="65,-488 65,-511 "/>
<text text-anchor="middle" x="78.5" y="-495.8" font-family="Times,serif" font-size="14.00">F</text>
</g>
<!-- Node0xdacaf0 -->
<g id="node3" class="node"><title>Node0xdacaf0</title>
<polygon fill="none" stroke="black" points="0,-246 0,-282 54,-282 54,-246 0,-246"/>
<text text-anchor="middle" x="27" y="-260.3" font-family="Times,serif" font-size="14.00">%4</text>
</g>
<!-- Node0xdacb50&#45;&gt;Node0xdacaf0 -->
<g id="edge2" class="edge"><title>Node0xdacb50:s0&#45;&gt;Node0xdacaf0</title>
<path fill="none" stroke="black" d="M51,-487C51,-416.389 38.8504,-333.874 31.8401,-292.14"/>
<polygon fill="black" stroke="black" points="35.2761,-291.468 30.1376,-282.203 28.3766,-292.65 35.2761,-291.468"/>
</g>
<!-- Node0xdacce0 -->
<g id="node5" class="node"><title>Node0xdacce0</title>
<polygon fill="none" stroke="black" points="69,-404 69,-450 123,-450 123,-404 69,-404"/>
<text text-anchor="middle" x="96" y="-434.8" font-family="Times,serif" font-size="14.00">%6</text>
<polyline fill="none" stroke="black" points="69,-427 123,-427 "/>
<text text-anchor="middle" x="82.5" y="-411.8" font-family="Times,serif" font-size="14.00">T</text>
<polyline fill="none" stroke="black" points="96,-404 96,-427 "/>
<text text-anchor="middle" x="109.5" y="-411.8" font-family="Times,serif" font-size="14.00">F</text>
</g>
<!-- Node0xdacb50&#45;&gt;Node0xdacce0 -->
<g id="edge4" class="edge"><title>Node0xdacb50:s1&#45;&gt;Node0xdacce0</title>
<path fill="none" stroke="black" d="M79,-487C79,-478.036 80.8344,-468.594 83.2981,-459.957"/>
<polygon fill="black" stroke="black" points="86.6859,-460.854 86.407,-450.263 80.0203,-458.716 86.6859,-460.854"/>
</g>
<!-- Node0xdacd40 -->
<g id="node7" class="node"><title>Node0xdacd40</title>
<polygon fill="none" stroke="black" points="27,-24 27,-60 81,-60 81,-24 27,-24"/>
<text text-anchor="middle" x="54" y="-38.3" font-family="Times,serif" font-size="14.00">%18</text>
</g>
<!-- Node0xdacaf0&#45;&gt;Node0xdacd40 -->
<g id="edge6" class="edge"><title>Node0xdacaf0&#45;&gt;Node0xdacd40</title>
<path fill="none" stroke="black" d="M28.8072,-245.53C31.9826,-215.25 38.9024,-151.07 46,-97 47.1575,-88.1818 48.5415,-78.5722 49.8302,-69.9365"/>
<polygon fill="black" stroke="black" points="53.2975,-70.4156 51.3334,-60.0044 46.3763,-69.368 53.2975,-70.4156"/>
</g>
<!-- Node0xdacda0 -->
<g id="node9" class="node"><title>Node0xdacda0</title>
<polygon fill="none" stroke="black" points="55,-172 55,-208 109,-208 109,-172 55,-172"/>
<text text-anchor="middle" x="82" y="-186.3" font-family="Times,serif" font-size="14.00">%9</text>
</g>
<!-- Node0xdacce0&#45;&gt;Node0xdacda0 -->
<g id="edge8" class="edge"><title>Node0xdacce0:s0&#45;&gt;Node0xdacda0</title>
<path fill="none" stroke="black" d="M82,-403C82,-336.583 82,-258.461 82,-218.137"/>
<polygon fill="black" stroke="black" points="85.5001,-218.037 82,-208.037 78.5001,-218.037 85.5001,-218.037"/>
</g>
<!-- Node0xdadeb0 -->
<g id="node11" class="node"><title>Node0xdadeb0</title>
<polygon fill="none" stroke="black" points="124,-320 124,-366 178,-366 178,-320 124,-320"/>
<text text-anchor="middle" x="151" y="-350.8" font-family="Times,serif" font-size="14.00">%11</text>
<polyline fill="none" stroke="black" points="124,-343 178,-343 "/>
<text text-anchor="middle" x="137.5" y="-327.8" font-family="Times,serif" font-size="14.00">T</text>
<polyline fill="none" stroke="black" points="151,-320 151,-343 "/>
<text text-anchor="middle" x="164.5" y="-327.8" font-family="Times,serif" font-size="14.00">F</text>
</g>
<!-- Node0xdacce0&#45;&gt;Node0xdadeb0 -->
<g id="edge10" class="edge"><title>Node0xdacce0:s1&#45;&gt;Node0xdadeb0</title>
<path fill="none" stroke="black" d="M110,-403C110,-392.616 114.336,-382.746 120.188,-374.154"/>
<polygon fill="black" stroke="black" points="123.123,-376.079 126.44,-366.017 117.572,-371.814 123.123,-376.079"/>
</g>
<!-- Node0xdae250 -->
<g id="node13" class="node"><title>Node0xdae250</title>
<polygon fill="none" stroke="black" points="55,-98 55,-134 109,-134 109,-98 55,-98"/>
<text text-anchor="middle" x="82" y="-112.3" font-family="Times,serif" font-size="14.00">%17</text>
</g>
<!-- Node0xdacda0&#45;&gt;Node0xdae250 -->
<g id="edge12" class="edge"><title>Node0xdacda0&#45;&gt;Node0xdae250</title>
<path fill="none" stroke="black" d="M82,-171.937C82,-163.807 82,-153.876 82,-144.705"/>
<polygon fill="black" stroke="black" points="85.5001,-144.441 82,-134.441 78.5001,-144.441 85.5001,-144.441"/>
</g>
<!-- Node0xdae440 -->
<g id="node15" class="node"><title>Node0xdae440</title>
<polygon fill="none" stroke="black" points="110,-246 110,-282 164,-282 164,-246 110,-246"/>
<text text-anchor="middle" x="137" y="-260.3" font-family="Times,serif" font-size="14.00">%14</text>
</g>
<!-- Node0xdadeb0&#45;&gt;Node0xdae440 -->
<g id="edge14" class="edge"><title>Node0xdadeb0:s0&#45;&gt;Node0xdae440</title>
<path fill="none" stroke="black" d="M137,-319C137,-310.299 137,-300.809 137,-292.246"/>
<polygon fill="black" stroke="black" points="140.5,-292.025 137,-282.025 133.5,-292.025 140.5,-292.025"/>
</g>
<!-- Node0xdae4a0 -->
<g id="node17" class="node"><title>Node0xdae4a0</title>
<polygon fill="none" stroke="black" points="127,-172 127,-208 181,-208 181,-172 127,-172"/>
<text text-anchor="middle" x="154" y="-186.3" font-family="Times,serif" font-size="14.00">%16</text>
</g>
<!-- Node0xdadeb0&#45;&gt;Node0xdae4a0 -->
<g id="edge16" class="edge"><title>Node0xdadeb0:s1&#45;&gt;Node0xdae4a0</title>
<path fill="none" stroke="black" d="M165,-319C165,-302.61 171.212,-299.292 173,-283 174.843,-266.212 175.843,-261.648 173,-245 171.437,-235.846 168.483,-226.181 165.363,-217.597"/>
<polygon fill="black" stroke="black" points="168.567,-216.177 161.697,-208.112 162.038,-218.701 168.567,-216.177"/>
</g>
<!-- Node0xdae250&#45;&gt;Node0xdacd40 -->
<g id="edge22" class="edge"><title>Node0xdae250&#45;&gt;Node0xdacd40</title>
<path fill="none" stroke="black" d="M75.3644,-97.937C72.0997,-89.5421 68.0881,-79.2266 64.4261,-69.81"/>
<polygon fill="black" stroke="black" points="67.669,-68.4921 60.7825,-60.4407 61.145,-71.0293 67.669,-68.4921"/>
</g>
<!-- Node0xdae440&#45;&gt;Node0xdae4a0 -->
<g id="edge18" class="edge"><title>Node0xdae440&#45;&gt;Node0xdae4a0</title>
<path fill="none" stroke="black" d="M141.029,-245.937C142.969,-237.719 145.344,-227.66 147.529,-218.406"/>
<polygon fill="black" stroke="black" points="150.99,-218.977 149.882,-208.441 144.178,-217.369 150.99,-218.977"/>
</g>
<!-- Node0xdae4a0&#45;&gt;Node0xdae250 -->
<g id="edge20" class="edge"><title>Node0xdae4a0&#45;&gt;Node0xdae250</title>
<path fill="none" stroke="black" d="M136.937,-171.937C127.924,-162.924 116.696,-151.696 106.744,-141.744"/>
<polygon fill="black" stroke="black" points="108.987,-139.037 99.4407,-134.441 104.037,-143.987 108.987,-139.037"/>
</g>
</g>
</svg>
