<?xml version="1.0" encoding="UTF-8" standalone="no"?>
<!DOCTYPE svg PUBLIC "-//W3C//DTD SVG 1.1//EN"
 "http://www.w3.org/Graphics/SVG/1.1/DTD/svg11.dtd">
<!-- Generated by graphviz version 2.28.0 (20120228.1928)
 -->
<!-- Title: Dominator tree for &#39;branch&#39; function Pages: 1 -->
<svg width="1107pt" height="481pt"
 viewBox="0.00 0.00 1107.00 481.00" xmlns="http://www.w3.org/2000/svg" xmlns:xlink="http://www.w3.org/1999/xlink">
<g id="graph1" class="graph" transform="scale(1 1) rotate(0) translate(4 477)">
<title>Dominator tree for &#39;branch&#39; function</title>
<polygon fill="white" stroke="white" points="-4,5 -4,-477 1104,-477 1104,5 -4,5"/>
<text text-anchor="middle" x="549.5" y="-7.8" font-family="Times,serif" font-size="14.00">Dominator tree for &#39;branch&#39; function</text>
<!-- Node0x15e6f30 -->
<g id="node1" class="node"><title>Node0x15e6f30</title>
<polygon fill="none" stroke="black" points="483.5,-374 483.5,-472 672.5,-472 672.5,-374 483.5,-374"/>
<text text-anchor="start" x="491.5" y="-456.8" font-family="Times,serif" font-size="14.00">%0:</text>
<text text-anchor="start" x="491.5" y="-441.8" font-family="Times,serif" font-size="14.00"> %1 = alloca i32, align 4</text>
<text text-anchor="start" x="491.5" y="-426.8" font-family="Times,serif" font-size="14.00"> store i32 %n, i32* %1, align 4</text>
<text text-anchor="start" x="491.5" y="-411.8" font-family="Times,serif" font-size="14.00"> %2 = load i32* %1, align 4</text>
<text text-anchor="start" x="491.5" y="-396.8" font-family="Times,serif" font-size="14.00"> %3 = icmp sgt i32 %2, 0</text>
<text text-anchor="start" x="491.5" y="-381.8" font-family="Times,serif" font-size="14.00"> br i1 %3, label %4, label %6</text>
</g>
<!-- Node0x15e2980 -->
<g id="node3" class="node"><title>Node0x15e2980</title>
<polygon fill="none" stroke="black" points="-0.5,-259.5 -0.5,-328.5 526.5,-328.5 526.5,-259.5 -0.5,-259.5"/>
<text text-anchor="start" x="7.5" y="-313.3" font-family="Times,serif" font-size="14.00">%4:</text>
<text text-anchor="start" x="7.5" y="-282.3" font-family="Times,serif" font-size="14.00"> %5 = call i32 (i8*, ...)* @printf(i8* getelementptr inbounds ([10 x i8]* @.str, i32 0, i32 0))</text>
<text text-anchor="start" x="7.5" y="-267.3" font-family="Times,serif" font-size="14.00"> br label %18</text>
</g>
<!-- Node0x15e6f30&#45;&gt;Node0x15e2980 -->
<g id="edge2" class="edge"><title>Node0x15e6f30&#45;&gt;Node0x15e2980</title>
<path fill="none" stroke="black" d="M483.49,-383.896C442.971,-367.56 395.794,-348.539 355.501,-332.294"/>
<polygon fill="black" stroke="black" points="356.8,-329.044 346.216,-328.551 354.182,-335.536 356.8,-329.044"/>
</g>
<!-- Node0x15e29f0 -->
<g id="node5" class="node"><title>Node0x15e29f0</title>
<polygon fill="none" stroke="black" points="545,-267 545,-321 611,-321 611,-267 545,-267"/>
<text text-anchor="start" x="553" y="-305.8" font-family="Times,serif" font-size="14.00">%18:</text>
<text text-anchor="start" x="553" y="-274.8" font-family="Times,serif" font-size="14.00"> ret i32 0</text>
</g>
<!-- Node0x15e6f30&#45;&gt;Node0x15e29f0 -->
<g id="edge4" class="edge"><title>Node0x15e6f30&#45;&gt;Node0x15e29f0</title>
<path fill="none" stroke="black" d="M578,-373.987C578,-359.798 578,-344.51 578,-331.199"/>
<polygon fill="black" stroke="black" points="581.5,-331.007 578,-321.007 574.5,-331.007 581.5,-331.007"/>
</g>
<!-- Node0x15e6fa0 -->
<g id="node7" class="node"><title>Node0x15e6fa0</title>
<polygon fill="none" stroke="black" points="629,-252 629,-336 817,-336 817,-252 629,-252"/>
<text text-anchor="start" x="637" y="-320.8" font-family="Times,serif" font-size="14.00">%6:</text>
<text text-anchor="start" x="637" y="-289.8" font-family="Times,serif" font-size="14.00"> %7 = load i32* %1, align 4</text>
<text text-anchor="start" x="637" y="-274.8" font-family="Times,serif" font-size="14.00"> %8 = icmp eq i32 %7, 0</text>
<text text-anchor="start" x="637" y="-259.8" font-family="Times,serif" font-size="14.00"> br i1 %8, label %9, label %11</text>
</g>
<!-- Node0x15e6f30&#45;&gt;Node0x15e6fa0 -->
<g id="edge6" class="edge"><title>Node0x15e6f30&#45;&gt;Node0x15e6fa0</title>
<path fill="none" stroke="black" d="M632.818,-373.987C644.528,-363.73 656.894,-352.9 668.589,-342.657"/>
<polygon fill="black" stroke="black" points="670.947,-345.244 676.164,-336.022 666.335,-339.978 670.947,-345.244"/>
</g>
<!-- Node0x15eb7b0 -->
<g id="node9" class="node"><title>Node0x15eb7b0</title>
<polygon fill="none" stroke="black" points="126.5,-137.5 126.5,-206.5 659.5,-206.5 659.5,-137.5 126.5,-137.5"/>
<text text-anchor="start" x="134.5" y="-191.3" font-family="Times,serif" font-size="14.00">%9:</text>
<text text-anchor="start" x="134.5" y="-160.3" font-family="Times,serif" font-size="14.00"> %10 = call i32 (i8*, ...)* @printf(i8* getelementptr inbounds ([6 x i8]* @.str1, i32 0, i32 0))</text>
<text text-anchor="start" x="134.5" y="-145.3" font-family="Times,serif" font-size="14.00"> br label %17</text>
</g>
<!-- Node0x15e6fa0&#45;&gt;Node0x15eb7b0 -->
<g id="edge8" class="edge"><title>Node0x15e6fa0&#45;&gt;Node0x15eb7b0</title>
<path fill="none" stroke="black" d="M628.784,-254.335C625.826,-253.2 622.893,-252.086 620,-251 582.575,-236.953 541.324,-222.48 504.369,-209.875"/>
<polygon fill="black" stroke="black" points="505.165,-206.448 494.571,-206.541 502.911,-213.075 505.165,-206.448"/>
</g>
<!-- Node0x15eb7f0 -->
<g id="node11" class="node"><title>Node0x15eb7f0</title>
<polygon fill="none" stroke="black" points="677.5,-145 677.5,-199 768.5,-199 768.5,-145 677.5,-145"/>
<text text-anchor="start" x="685.5" y="-183.8" font-family="Times,serif" font-size="14.00">%17:</text>
<text text-anchor="start" x="685.5" y="-152.8" font-family="Times,serif" font-size="14.00"> br label %18</text>
</g>
<!-- Node0x15e6fa0&#45;&gt;Node0x15eb7f0 -->
<g id="edge10" class="edge"><title>Node0x15e6fa0&#45;&gt;Node0x15eb7f0</title>
<path fill="none" stroke="black" d="M723,-251.703C723,-238.008 723,-222.869 723,-209.556"/>
<polygon fill="black" stroke="black" points="726.5,-209.334 723,-199.335 719.5,-209.335 726.5,-209.334"/>
</g>
<!-- Node0x15eb830 -->
<g id="node13" class="node"><title>Node0x15eb830</title>
<polygon fill="none" stroke="black" points="786.5,-130 786.5,-214 987.5,-214 987.5,-130 786.5,-130"/>
<text text-anchor="start" x="794.5" y="-198.8" font-family="Times,serif" font-size="14.00">%11:</text>
<text text-anchor="start" x="794.5" y="-167.8" font-family="Times,serif" font-size="14.00"> %12 = load i32* %1, align 4</text>
<text text-anchor="start" x="794.5" y="-152.8" font-family="Times,serif" font-size="14.00"> %13 = icmp slt i32 %12, 0</text>
<text text-anchor="start" x="794.5" y="-137.8" font-family="Times,serif" font-size="14.00"> br i1 %13, label %14, label %16</text>
</g>
<!-- Node0x15e6fa0&#45;&gt;Node0x15eb830 -->
<g id="edge12" class="edge"><title>Node0x15e6fa0&#45;&gt;Node0x15eb830</title>
<path fill="none" stroke="black" d="M779.439,-251.703C793.304,-241.558 808.251,-230.621 822.464,-220.221"/>
<polygon fill="black" stroke="black" points="824.731,-222.9 830.734,-214.17 820.597,-217.25 824.731,-222.9"/>
</g>
<!-- Node0x15eb8a0 -->
<g id="node15" class="node"><title>Node0x15eb8a0</title>
<polygon fill="none" stroke="black" points="450,-23.5 450,-92.5 990,-92.5 990,-23.5 450,-23.5"/>
<text text-anchor="start" x="458" y="-77.3" font-family="Times,serif" font-size="14.00">%14:</text>
<text text-anchor="start" x="458" y="-46.3" font-family="Times,serif" font-size="14.00"> %15 = call i32 (i8*, ...)* @printf(i8* getelementptr inbounds ([10 x i8]* @.str2, i32 0, i32 0))</text>
<text text-anchor="start" x="458" y="-31.3" font-family="Times,serif" font-size="14.00"> br label %16</text>
</g>
<!-- Node0x15eb830&#45;&gt;Node0x15eb8a0 -->
<g id="edge14" class="edge"><title>Node0x15eb830&#45;&gt;Node0x15eb8a0</title>
<path fill="none" stroke="black" d="M825.764,-129.931C810.29,-119.554 793.717,-108.439 778.388,-98.1586"/>
<polygon fill="black" stroke="black" points="780.27,-95.2064 770.015,-92.5432 776.371,-101.02 780.27,-95.2064"/>
</g>
<!-- Node0x15eb8e0 -->
<g id="node17" class="node"><title>Node0x15eb8e0</title>
<polygon fill="none" stroke="black" points="1008.5,-31 1008.5,-85 1099.5,-85 1099.5,-31 1008.5,-31"/>
<text text-anchor="start" x="1016.5" y="-69.8" font-family="Times,serif" font-size="14.00">%16:</text>
<text text-anchor="start" x="1016.5" y="-38.8" font-family="Times,serif" font-size="14.00"> br label %17</text>
</g>
<!-- Node0x15eb830&#45;&gt;Node0x15eb8e0 -->
<g id="edge16" class="edge"><title>Node0x15eb830&#45;&gt;Node0x15eb8e0</title>
<path fill="none" stroke="black" d="M948.236,-129.931C967.436,-117.055 988.33,-103.042 1006.44,-90.8983"/>
<polygon fill="black" stroke="black" points="1008.73,-93.5768 1015.08,-85.1 1004.83,-87.7632 1008.73,-93.5768"/>
</g>
</g>
</svg>
